hun:
kazincbarcikai rockpárbaj, 2011.09.24. (tehetségkutató rendezvény)

fellépő zenekarok: 

Towards Eternity
Royal Dogs
Serious
SkyJack
Crazy Bike Machine
Wake On Burial
Sick Stick
StormRaizer
Frantic
Xplode
D!sgrace

eng:
Rock Duel in Kazincbarcika, Hungary, on 09.24.2011. (talent show for rock bands)

bands attending:

Towards Eternity
Royal Dogs
Serious
SkyJack
Crazy Bike Machine
Wake On Burial
Sick Stick
StormRaizer
Frantic
Xplode
D!sgrace


video info:

Format                           : AVI
Format/Info                      : Audio Video Interleave
Format profile                   : OpenDML
File size                        : 2.89 GiB
Duration                         : 2h 33mn
Overall bit rate                 : 2 705 Kbps
Writing library                  : AVI OpenDML bitRipper plugin release

Video
ID                               : 0
Format                           : MPEG-4 Visual
Format profile                   : Advanced Simple@L5
Format settings, BVOP            : 2
Format settings, QPel            : No
Format settings, GMC             : No warppoints
Format settings, Matrix          : Default (H.263)
Muxing mode                      : Packed bitstream
Codec ID                         : XVID
Codec ID/Hint                    : XviD
Duration                         : 2h 33mn
Bit rate                         : 2 643 Kbps
Width                            : 720 pixels
Height                           : 576 pixels
Display aspect ratio             : 5:4
Frame rate                       : 25.000 fps
Standard                         : PAL
Color space                      : YUV
Chroma subsampling               : 4:2:0
Bit depth                        : 8 bits
Scan type                        : Progressive
Compression mode                 : Lossy
Bits/(Pixel*Frame)               : 0.255
Stream size                      : 2.83 GiB (98%)
Writing library                  : XviD 58

Audio
ID                               : 1
Format                           : MPEG Audio
Format version                   : Version 2
Format profile                   : Layer 3
Mode                             : Joint stereo
Mode extension                   : Intensity Stereo + MS Stereo
Codec ID                         : 55
Codec ID/Hint                    : MP3
Duration                         : 2h 28mn
Bit rate mode                    : Constant
Bit rate                         : 56.0 Kbps
Channel(s)                       : 2 channels
Sampling rate                    : 22.05 KHz
Compression mode                 : Lossy
Stream size                      : 61.0 MiB (2%)
Alignment                        : Aligned on interleaves
Interleave, duration             : 400 ms (10.00 video frames)

